<svg width="241" height="85" viewBox="0 0 241 85" fill="none" xmlns="http://www.w3.org/2000/svg">
<defs>
<filter id="filter0_d_186_448" x="0.575711" y="0.21019" width="84.4141" height="84.4141" filterUnits="userSpaceOnUse" color-interpolation-filters="sRGB">
<feFlood flood-opacity="0" result="BackgroundImageFix"/>
<feColorMatrix in="SourceAlpha" type="matrix" values="0 0 0 0 0 0 0 0 0 0 0 0 0 0 0 0 0 0 127 0" result="hardAlpha"/>
<feMorphology radius="6.61041" operator="erode" in="SourceAlpha" result="effect1_dropShadow_186_448"/>
<feOffset dy="4.40694"/>
<feGaussianBlur stdDeviation="11.0173"/>
<feComposite in2="hardAlpha" operator="out"/>
<feColorMatrix type="matrix" values="0 0 0 0 0 0 0 0 0 0 0 0 0 0 0 0 0 0 0.1 0"/>
<feBlend mode="normal" in2="BackgroundImageFix" result="effect1_dropShadow_186_448"/>
<feBlend mode="normal" in="SourceGraphic" in2="effect1_dropShadow_186_448" result="shape"/>
</filter>
<filter id="filter1_i_186_448" x="28.9684" y="19.4032" width="27.4893" height="37.3549" filterUnits="userSpaceOnUse" color-interpolation-filters="sRGB">
<feFlood flood-opacity="0" result="BackgroundImageFix"/>
<feBlend mode="normal" in="SourceGraphic" in2="BackgroundImageFix" result="shape"/>
<feColorMatrix in="SourceAlpha" type="matrix" values="0 0 0 0 0 0 0 0 0 0 0 0 0 0 0 0 0 0 127 0" result="hardAlpha"/>
<feOffset dy="0.281924"/>
<feGaussianBlur stdDeviation="0.704809"/>
<feComposite in2="hardAlpha" operator="arithmetic" k2="-1" k3="1"/>
<feColorMatrix type="matrix" values="0 0 0 0 0 0 0 0 0 0 0 0 0 0 0 0 0 0 0.1 0"/>
<feBlend mode="normal" in2="shape" result="effect1_innerShadow_186_448"/>
</filter>
<linearGradient id="paint0_linear_186_448" x1="62.165" y1="12.5667" x2="19.524" y2="60.8461" gradientUnits="userSpaceOnUse">
<stop stop-color="#81C76B"/>
<stop offset="1" stop-color="#72A163"/>
</linearGradient>
</defs>
<path d="M108.129 32.8827C108.129 34.3634 107.772 35.7516 107.058 37.0473C106.371 38.3429 105.273 39.3873 103.766 40.1806C102.285 40.9738 100.408 41.3705 98.1341 41.3705H93.4936V52H87.9409V24.3156H98.1341C100.276 24.3156 102.1 24.6858 103.608 25.4262C105.115 26.1665 106.238 27.1845 106.979 28.4802C107.746 29.7758 108.129 31.2433 108.129 32.8827ZM97.8962 36.8886C99.4298 36.8886 100.567 36.5449 101.307 35.8574C102.047 35.1435 102.418 34.1519 102.418 32.8827C102.418 30.1856 100.91 28.8371 97.8962 28.8371H93.4936V36.8886H97.8962ZM132.815 30.027V52H127.223V49.2236C126.509 50.1755 125.57 50.9291 124.406 51.4844C123.269 52.0132 122.027 52.2776 120.678 52.2776C118.959 52.2776 117.439 51.9207 116.117 51.2068C114.795 50.4664 113.75 49.3955 112.984 47.9941C112.243 46.5662 111.873 44.874 111.873 42.9173V30.027H117.426V42.124C117.426 43.8692 117.862 45.2177 118.735 46.1696C119.607 47.0951 120.797 47.5578 122.304 47.5578C123.838 47.5578 125.041 47.0951 125.914 46.1696C126.786 45.2177 127.223 43.8692 127.223 42.124V30.027H132.815ZM143.846 33.438C144.56 32.2745 145.486 31.3623 146.623 30.7013C147.786 30.0402 149.108 29.7097 150.589 29.7097V35.5401H149.121C147.376 35.5401 146.054 35.9499 145.155 36.7696C144.283 37.5893 143.846 39.0172 143.846 41.0532V52H138.294V30.027H143.846V33.438ZM174.755 40.5375C174.755 41.3308 174.702 42.0447 174.597 42.6793H158.533C158.665 44.2658 159.221 45.5086 160.199 46.4076C161.177 47.3066 162.38 47.7561 163.808 47.7561C165.871 47.7561 167.338 46.8703 168.211 45.0987H174.2C173.565 47.2141 172.349 48.9592 170.551 50.3342C168.753 51.6827 166.545 52.357 163.927 52.357C161.812 52.357 159.908 51.8942 158.216 50.9688C156.55 50.0169 155.241 48.6816 154.289 46.9629C153.364 45.2442 152.901 43.261 152.901 41.0135C152.901 38.7395 153.364 36.7432 154.289 35.0245C155.215 33.3058 156.51 31.9837 158.176 31.0582C159.842 30.1328 161.759 29.67 163.927 29.67C166.016 29.67 167.88 30.1195 169.52 31.0186C171.186 31.9176 172.468 33.2 173.367 34.8658C174.292 36.5052 174.755 38.3958 174.755 40.5375ZM169.004 38.951C168.978 37.5232 168.462 36.3862 167.457 35.5401C166.453 34.6675 165.223 34.2312 163.769 34.2312C162.394 34.2312 161.23 34.6543 160.278 35.5004C159.353 36.3201 158.784 37.4703 158.573 38.951H169.004ZM187.217 52.357C185.419 52.357 183.806 52.0397 182.378 51.4051C180.95 50.744 179.813 49.8582 178.967 48.7477C178.147 47.6371 177.698 46.4076 177.618 45.0591H183.211C183.316 45.9052 183.726 46.6059 184.44 47.1612C185.181 47.7165 186.093 47.9941 187.177 47.9941C188.235 47.9941 189.054 47.7826 189.636 47.3595C190.244 46.9364 190.548 46.3944 190.548 45.7333C190.548 45.0194 190.178 44.4906 189.438 44.1468C188.724 43.7766 187.574 43.38 185.987 42.957C184.348 42.5603 182.999 42.1505 181.942 41.7274C180.91 41.3044 180.011 40.6565 179.244 39.784C178.504 38.9114 178.134 37.7347 178.134 36.254C178.134 35.0377 178.478 33.9271 179.165 32.9224C179.879 31.9176 180.884 31.1243 182.179 30.5426C183.502 29.9609 185.048 29.67 186.82 29.67C189.438 29.67 191.527 30.3311 193.087 31.6532C194.647 32.9488 195.506 34.7072 195.665 36.9283H190.35C190.271 36.0557 189.9 35.3682 189.239 34.8658C188.605 34.337 187.745 34.0726 186.661 34.0726C185.657 34.0726 184.877 34.2577 184.321 34.6278C183.792 34.998 183.528 35.5136 183.528 36.1747C183.528 36.915 183.898 37.4835 184.639 37.8802C185.379 38.2503 186.529 38.6338 188.089 39.0304C189.676 39.427 190.985 39.8368 192.016 40.2599C193.047 40.683 193.933 41.344 194.673 42.243C195.44 43.1156 195.837 44.279 195.863 45.7333C195.863 47.0025 195.506 48.1395 194.792 49.1443C194.105 50.1491 193.1 50.9423 191.778 51.5241C190.482 52.0793 188.962 52.357 187.217 52.357ZM206.886 34.5882V45.2177C206.886 45.9581 207.058 46.5001 207.402 46.8439C207.772 47.1612 208.38 47.3198 209.226 47.3198H211.804V52H208.314C203.634 52 201.294 49.726 201.294 45.1781V34.5882H198.676V30.027H201.294V24.5932H206.886V30.027H211.804V34.5882H206.886ZM236.819 30.027L223.215 62.3916H217.305L222.065 51.4447L213.26 30.027H219.487L225.158 45.3764L230.909 30.027H236.819Z" fill="white"/>
<g filter="url(#filter0_d_186_448)">
<rect x="16" y="11.2275" width="53.5655" height="53.5655" rx="11.2769" fill="url(#paint0_linear_186_448)"/>
</g>
<g filter="url(#filter1_i_186_448)">
<path fill-rule="evenodd" clip-rule="evenodd" d="M52.9144 36.889C52.4089 36.4101 51.6123 36.5247 51.1923 37.0802L49.2179 39.692C48.7979 40.2475 48.9221 41.0313 49.3688 41.5655C49.8342 42.1221 50.1886 42.7677 50.4079 43.4678C50.7536 44.5717 50.746 45.7561 50.386 46.8554C50.026 47.9548 49.3316 48.9143 48.3999 49.5999C47.4681 50.2855 46.3455 50.663 45.1889 50.6796C44.0322 50.6963 42.8992 50.3513 41.9481 49.6928C40.997 49.0343 40.2753 48.0953 39.8838 47.0067C39.4922 45.9182 39.4505 44.7346 39.7643 43.6211C39.9633 42.915 40.299 42.2595 40.7481 41.6897C41.1793 41.1428 41.2808 40.3558 40.845 39.8126L38.7961 37.2588C38.3603 36.7156 37.5608 36.624 37.0692 37.1173C35.7081 38.4835 34.7124 40.1794 34.1855 42.0489C33.5442 44.3245 33.6296 46.7436 34.4298 48.9684C35.2299 51.1931 36.705 53.1124 38.6488 54.4582C40.5927 55.804 42.9083 56.5091 45.2724 56.4751C47.6364 56.441 49.9308 55.6695 51.8351 54.2683C53.7393 52.867 55.1585 50.906 55.8942 48.6591C56.63 46.4123 56.6456 43.9917 55.939 41.7355C55.3585 39.882 54.3143 38.2154 52.9144 36.889ZM32.5118 38.9905C33.0173 39.4695 33.8139 39.3548 34.2339 38.7993L36.2083 36.1875C36.6283 35.632 36.5041 34.8483 36.0574 34.314C35.592 33.7574 35.2376 33.1118 35.0183 32.4117C34.6726 31.3078 34.6802 30.1234 35.0402 29.0241C35.4002 27.9247 36.0946 26.9652 37.0263 26.2796C37.958 25.594 39.0806 25.2165 40.2373 25.1999C41.394 25.1832 42.527 25.5282 43.4781 26.1867C44.4292 26.8452 45.1509 27.7843 45.5424 28.8728C45.934 29.9613 45.9757 31.145 45.6619 32.2584C45.4629 32.9645 45.1272 33.62 44.6781 34.1898C44.2469 34.7367 44.1454 35.5237 44.5812 36.0669L46.6301 38.6207C47.0659 39.1639 47.8654 39.2555 48.357 38.7622C49.7181 37.3961 50.7138 35.7001 51.2407 33.8306C51.882 31.555 51.7966 29.1359 50.9964 26.9111C50.1963 24.6864 48.7212 22.7671 46.7774 21.4213C44.8335 20.0755 42.5179 19.3704 40.1538 19.4044C37.7898 19.4385 35.4954 20.21 33.5911 21.6112C31.6869 23.0125 30.2677 24.9735 29.532 27.2204C28.7962 29.4672 28.7806 31.8878 29.4872 34.144C30.0677 35.9975 31.1119 37.6641 32.5118 38.9905Z" fill="white"/>
</g>
</svg>
